M48
; DRILL file {KiCad (6.0.10)} date Sat Apr  8 10:38:03 2023
; FORMAT={-:-/ absolute / metric / decimal}
; #@! TF.CreationDate,2023-04-08T10:38:03-05:00
; #@! TF.GenerationSoftware,Kicad,Pcbnew,(6.0.10)
; #@! TF.FileFunction,MixedPlating,1,2
FMAT,2
METRIC
; #@! TA.AperFunction,Plated,PTH,ViaDrill
T1C0.400
; #@! TA.AperFunction,Plated,PTH,ComponentDrill
T2C0.700
; #@! TA.AperFunction,Plated,PTH,ComponentDrill
T3C0.800
; #@! TA.AperFunction,Plated,PTH,ComponentDrill
T4C0.920
; #@! TA.AperFunction,Plated,PTH,ComponentDrill
T5C1.100
; #@! TA.AperFunction,Plated,PTH,ComponentDrill
T6C1.397
; #@! TA.AperFunction,Plated,PTH,ComponentDrill
T7C2.300
; #@! TA.AperFunction,Plated,PTH,ComponentDrill
T8C3.200
; #@! TA.AperFunction,NonPlated,NPTH,ComponentDrill
T9C1.397
%
G90
G05
T1
X89.9Y-141.4
X90.3Y-134.4
X102.5Y-82.5
X106.0Y-144.4
X110.7Y-84.4
X112.7Y-118.3
X116.9Y-145.4
X119.8Y-99.6
X123.4Y-139.8
X125.0Y-92.3
X125.7Y-118.1
X127.9Y-137.0
X128.8Y-101.3
X129.4Y-147.3
X131.5Y-131.5
X132.6Y-107.2
X134.2Y-83.8
X138.0Y-133.4
X138.0Y-143.3
T2
X101.7Y-134.78
X101.7Y-137.32
X101.8Y-95.18
X101.8Y-97.72
X102.0Y-86.18
X102.0Y-88.72
X113.8Y-104.68
X113.8Y-107.22
X124.8Y-141.68
X124.8Y-144.22
X125.2Y-135.38
X125.2Y-137.92
X125.4Y-86.68
X125.4Y-89.22
X142.78Y-131.1
X145.32Y-131.1
T3
X89.42Y-118.43
X89.42Y-120.97
X90.3Y-81.98
X90.3Y-89.6
X90.59Y-92.5
X90.7Y-97.98
X90.7Y-105.6
X90.89Y-109.0
X91.8Y-79.1
X92.0Y-95.1
X92.84Y-81.98
X92.84Y-89.6
X93.24Y-97.98
X93.24Y-105.6
X95.38Y-81.98
X95.38Y-89.6
X95.78Y-97.98
X95.78Y-105.6
X96.8Y-79.1
X97.0Y-95.1
X97.92Y-81.98
X97.92Y-89.6
X98.21Y-92.5
X98.32Y-97.98
X98.32Y-105.6
X98.51Y-109.0
X101.66Y-114.518
X101.66Y-116.518
X101.66Y-118.518
X103.66Y-114.518
X103.66Y-116.518
X103.66Y-118.518
T4
X98.39Y-134.6
X98.39Y-137.1
X98.39Y-139.1
X98.39Y-141.6
T5
X88.69Y-112.08
X88.69Y-127.32
X91.23Y-112.08
X91.23Y-114.62
X91.23Y-127.32
X93.77Y-112.08
X93.77Y-127.32
X94.989Y-124.269
X96.31Y-112.08
X96.31Y-127.32
X97.529Y-124.269
X98.85Y-112.08
X98.85Y-127.32
X100.069Y-124.269
X101.39Y-112.08
X101.39Y-127.32
X102.609Y-124.269
X103.93Y-112.08
X103.93Y-127.32
X105.149Y-124.269
X106.47Y-112.08
X106.47Y-127.32
X109.01Y-112.08
X109.01Y-127.32
X111.55Y-112.08
X111.55Y-127.32
X114.09Y-112.08
X114.09Y-127.32
X116.63Y-112.08
X116.63Y-127.32
X119.17Y-112.08
X119.17Y-127.32
X121.71Y-112.08
X121.71Y-127.32
X124.25Y-112.08
X124.25Y-127.32
X126.79Y-112.08
X126.79Y-127.32
X129.33Y-112.08
X129.33Y-127.32
X131.87Y-112.08
X131.87Y-127.32
X134.41Y-112.08
X134.41Y-114.62
X134.41Y-117.16
X134.41Y-119.7
X134.41Y-122.24
X134.41Y-124.78
X134.41Y-127.32
X136.95Y-112.08
X136.95Y-127.32
X139.49Y-112.08
X139.49Y-127.32
X142.03Y-112.08
X142.03Y-127.32
X144.57Y-112.08
X144.57Y-127.32
X147.11Y-112.08
X147.11Y-127.32
T6
X104.802Y-89.397
X104.802Y-140.003
X107.304Y-91.899
X107.304Y-137.501
X112.3Y-89.4
X112.3Y-140.0
X117.296Y-91.899
X117.296Y-137.501
X119.798Y-89.397
X119.798Y-140.003
X129.902Y-89.397
X129.902Y-140.003
X132.404Y-91.899
X132.404Y-137.501
X137.4Y-89.4
X137.4Y-140.0
X142.396Y-91.899
X142.396Y-137.501
X144.898Y-89.397
X144.898Y-140.003
T7
X95.68Y-131.53
X95.68Y-144.67
T8
X90.3Y-148.7
X123.5Y-104.0
X142.5Y-105.5
T9
X107.299Y-79.402
X107.299Y-149.998
X117.301Y-79.402
X117.301Y-149.998
X132.399Y-79.402
X132.399Y-149.998
X142.401Y-79.402
X142.401Y-149.998
T0
M30
