%TF.GenerationSoftware,KiCad,Pcbnew,(6.0.10)*%
%TF.CreationDate,2023-04-08T10:37:49-05:00*%
%TF.ProjectId,AkaiFireSequener,416b6169-4669-4726-9553-657175656e65,rev?*%
%TF.SameCoordinates,Original*%
%TF.FileFunction,Soldermask,Bot*%
%TF.FilePolarity,Negative*%
%FSLAX46Y46*%
G04 Gerber Fmt 4.6, Leading zero omitted, Abs format (unit mm)*
G04 Created by KiCad (PCBNEW (6.0.10)) date 2023-04-08 10:37:49*
%MOMM*%
%LPD*%
G01*
G04 APERTURE LIST*
%ADD10C,1.600000*%
%ADD11R,1.600000X1.600000*%
%ADD12R,1.300000X1.300000*%
%ADD13C,1.300000*%
%ADD14C,2.499360*%
%ADD15C,3.000000*%
%ADD16C,6.400000*%
%ADD17O,1.600000X1.600000*%
%ADD18C,1.400000*%
%ADD19O,1.400000X1.400000*%
G04 APERTURE END LIST*
D10*
%TO.C,U1*%
X91230000Y-114620000D03*
X105149200Y-124269200D03*
X102609200Y-124269200D03*
X100069200Y-124269200D03*
X97529200Y-124269200D03*
D11*
X94989200Y-124269200D03*
D10*
X88690000Y-112080000D03*
X91230000Y-112080000D03*
X93770000Y-112080000D03*
X96310000Y-112080000D03*
X98850000Y-112080000D03*
X101390000Y-112080000D03*
X103930000Y-112080000D03*
X106470000Y-112080000D03*
X109010000Y-112080000D03*
X111550000Y-112080000D03*
X114090000Y-112080000D03*
X116630000Y-112080000D03*
X119170000Y-112080000D03*
X121710000Y-112080000D03*
D11*
X88690000Y-127320000D03*
D10*
X91230000Y-127320000D03*
X93770000Y-127320000D03*
X96310000Y-127320000D03*
X98850000Y-127320000D03*
X101390000Y-127320000D03*
X103930000Y-127320000D03*
X106470000Y-127320000D03*
X109010000Y-127320000D03*
X111550000Y-127320000D03*
X114090000Y-127320000D03*
X116630000Y-127320000D03*
X119170000Y-127320000D03*
X124250000Y-112080000D03*
X126790000Y-112080000D03*
X129330000Y-112080000D03*
X131870000Y-112080000D03*
X134410000Y-112080000D03*
X136950000Y-112080000D03*
X139490000Y-112080000D03*
X142030000Y-112080000D03*
X144570000Y-112080000D03*
X147110000Y-112080000D03*
X147110000Y-127320000D03*
X144570000Y-127320000D03*
X142030000Y-127320000D03*
X139490000Y-127320000D03*
X121710000Y-127320000D03*
X124250000Y-127320000D03*
X126790000Y-127320000D03*
X136950000Y-127320000D03*
X134410000Y-127320000D03*
X131870000Y-127320000D03*
X129330000Y-127320000D03*
D12*
X101660000Y-114518400D03*
D13*
X103660000Y-114518400D03*
X101660000Y-116518400D03*
X103660000Y-116518400D03*
X103660000Y-118518400D03*
X101660000Y-118518400D03*
D10*
X134410000Y-124780000D03*
X134410000Y-122240000D03*
X134410000Y-119700000D03*
X134410000Y-117160000D03*
X134410000Y-114620000D03*
D13*
X89420000Y-120970000D03*
X89420000Y-118430000D03*
%TD*%
D14*
%TO.C,J5*%
X144898080Y-89397200D03*
X132403820Y-91899100D03*
X137400000Y-89399740D03*
X129901920Y-89397200D03*
X142396180Y-91899100D03*
X132398740Y-79402300D03*
X142401260Y-79402300D03*
%TD*%
%TO.C,J4*%
X119798080Y-89397200D03*
X107303820Y-91899100D03*
X112300000Y-89399740D03*
X104801920Y-89397200D03*
X117296180Y-91899100D03*
X107298740Y-79402300D03*
X117301260Y-79402300D03*
%TD*%
D11*
%TO.C,J1*%
X98390000Y-134600000D03*
D10*
X98390000Y-137100000D03*
X98390000Y-139100000D03*
X98390000Y-141600000D03*
D15*
X95680000Y-131530000D03*
X95680000Y-144670000D03*
%TD*%
D16*
%TO.C,H1*%
X123500000Y-104000000D03*
%TD*%
%TO.C,H4*%
X90300000Y-148700000D03*
%TD*%
%TO.C,H1*%
X142500000Y-105500000D03*
%TD*%
D10*
%TO.C,C2*%
X91800000Y-79100000D03*
X96800000Y-79100000D03*
%TD*%
%TO.C,C1*%
X92000000Y-95100000D03*
X97000000Y-95100000D03*
%TD*%
D17*
%TO.C,U3*%
X90300000Y-81980000D03*
X92840000Y-81980000D03*
X95380000Y-81980000D03*
X97920000Y-81980000D03*
X97920000Y-89600000D03*
X95380000Y-89600000D03*
X92840000Y-89600000D03*
D11*
X90300000Y-89600000D03*
%TD*%
%TO.C,U2*%
X90700000Y-105600000D03*
D17*
X93240000Y-105600000D03*
X95780000Y-105600000D03*
X98320000Y-105600000D03*
X98320000Y-97980000D03*
X95780000Y-97980000D03*
X93240000Y-97980000D03*
X90700000Y-97980000D03*
%TD*%
D18*
%TO.C,R8*%
X102000000Y-86180000D03*
D19*
X102000000Y-88720000D03*
%TD*%
D18*
%TO.C,R7*%
X101800000Y-95180000D03*
D19*
X101800000Y-97720000D03*
%TD*%
D18*
%TO.C,R6*%
X113800000Y-104680000D03*
D19*
X113800000Y-107220000D03*
%TD*%
D18*
%TO.C,R5*%
X125400000Y-89220000D03*
D19*
X125400000Y-86680000D03*
%TD*%
D11*
%TO.C,D2*%
X90890000Y-109000000D03*
D17*
X98510000Y-109000000D03*
%TD*%
D11*
%TO.C,D1*%
X90590000Y-92500000D03*
D17*
X98210000Y-92500000D03*
%TD*%
D18*
%TO.C,R4*%
X145320000Y-131100000D03*
D19*
X142780000Y-131100000D03*
%TD*%
D18*
%TO.C,R3*%
X124800000Y-141680000D03*
D19*
X124800000Y-144220000D03*
%TD*%
D18*
%TO.C,R2*%
X125200000Y-135380000D03*
D19*
X125200000Y-137920000D03*
%TD*%
%TO.C,R1*%
X101700000Y-134780000D03*
D18*
X101700000Y-137320000D03*
%TD*%
D14*
%TO.C,J3*%
X129901920Y-140002800D03*
X142396180Y-137500900D03*
X137400000Y-140000260D03*
X144898080Y-140002800D03*
X132403820Y-137500900D03*
X142401260Y-149997700D03*
X132398740Y-149997700D03*
%TD*%
%TO.C,J2*%
X107298740Y-149997700D03*
X117301260Y-149997700D03*
X107303820Y-137500900D03*
X119798080Y-140002800D03*
X112300000Y-140000260D03*
X117296180Y-137500900D03*
X104801920Y-140002800D03*
%TD*%
M02*
